<svg xmlns="http://www.w3.org/2000/svg" width="21" height="21" viewBox="0 0 21 21" fill="none"><g clip-path="url(#clip0_2_28)"><path d="M20.6732 0.130489C20.7942 0.210124 20.8889 0.3239 20.9453 0.457403C21.0016 0.590906 21.017 0.738128 20.9896 0.880415L17.9899 18.8787C17.9619 19.0535 17.8719 19.2124 17.7364 19.3264C17.601 19.4403 17.429 19.5018 17.252 19.4996C17.1551 19.4971 17.0595 19.4767 16.97 19.4396L11.662 17.2738L8.82732 20.7295C8.76017 20.8172 8.67295 20.8875 8.57299 20.9344C8.47303 20.9814 8.36325 21.0037 8.25288 20.9994C8.13174 21.0005 8.01221 20.9717 7.90492 20.9154C7.79764 20.8592 7.70592 20.7772 7.63794 20.677C7.54934 20.5521 7.50213 20.4026 7.50295 20.2495V16.1594L17.627 3.75113L5.10019 14.5906L0.471641 12.6903C0.336398 12.6445 0.218712 12.5579 0.134873 12.4424C0.0510336 12.3268 0.00518945 12.1881 0.00368637 12.0453C-0.0107343 11.9059 0.0173639 11.7654 0.0842876 11.6423C0.151211 11.5191 0.253828 11.4191 0.37865 11.3554L19.8767 0.106491C19.9974 0.0325833 20.1371 -0.00451222 20.2785 -0.000249729C20.42 0.00401277 20.5571 0.0494481 20.6732 0.130489Z" fill="white"></path></g><defs><clipPath id="clip0_2_28"><rect width="21" height="21" fill="white"></rect></clipPath></defs></svg>